<svg xmlns="http://www.w3.org/2000/svg" enable-background="new 0 0 64 64" viewBox="0 0 64 64"><rect id="background" width="2913.54" height="5585.18" x="-231.54" y="-470.26" fill="#fff" display="none"/><g id="_x32_1_bus"><path fill="#dfdfdf" d="M4.61 24.89c-.55 0-1-.45-1-1v-3.8c0-2.06 1.67-3.73 3.73-3.73h3.59c.55 0 1 .45 1 1s-.45 1-1 1H7.34c-.95 0-1.73.78-1.73 1.73v3.8C5.61 24.44 5.16 24.89 4.61 24.89zM59.39 23.89c-.55 0-1-.45-1-1v-2.8c0-.95-.77-1.73-1.73-1.73h-3.59c-.55 0-1-.45-1-1s.45-1 1-1h3.59c2.06 0 3.73 1.67 3.73 3.73v2.8C60.39 23.44 59.94 23.89 59.39 23.89z"/><path fill="#da4a54" d="M53.07,46.73c0,3.99-3.24,7.23-7.23,7.23H18.16c-3.99,0-7.23-3.24-7.23-7.23l0-36.26
		c0-0.93,0.55-1.79,1.42-2.15c13.1-5.41,26.2-5.41,39.31,0c0.86,0.36,1.42,1.21,1.42,2.15V46.73z"/><path fill="#d82e3d" d="M53.07,10.47c0-0.93-0.55-1.79-1.42-2.15c-7.23-2.98-14.46-4.31-21.69-4c5.87,0.25,11.75,1.58,17.62,4
		C48.45,8.68,49,9.54,49,10.47v36.26c0,3.99-3.24,7.23-7.23,7.23h4.07c3.99,0,7.23-3.24,7.23-7.23V10.47z"/><path fill="#90d8f9" d="M47.57,28.67c0,0.27-0.16,0.52-0.41,0.63c-10.1,4.36-20.21,4.36-30.31,0c-0.25-0.11-0.41-0.36-0.41-0.63V14.18
		c0-0.34,0.25-0.62,0.58-0.67c9.99-1.54,19.99-1.54,29.98,0c0.33,0.05,0.58,0.34,0.58,0.67V28.67z"/><path fill="#75cef9" d="M46.99,13.5c-0.23-0.03-0.46-0.06-0.69-0.09c-0.6-0.09-1.2-0.17-1.8-0.24v9.88c0,3.12-2.07,5.83-5.06,6.72
		c-7.59,2.27-15.19,2.07-22.78-0.59c0.04,0.04,0.09,0.06,0.14,0.09c0.28,0.12,0.55,0.23,0.83,0.34c0.31,0.12,0.61,0.25,0.92,0.37
		c0.33,0.13,0.66,0.24,0.99,0.36c0.3,0.11,0.61,0.22,0.91,0.32c0.33,0.11,0.66,0.21,0.99,0.3c0.3,0.09,0.61,0.19,0.91,0.27
		c0.33,0.09,0.66,0.17,1,0.25c0.3,0.07,0.61,0.15,0.91,0.22c0.33,0.07,0.67,0.13,1,0.2c0.3,0.06,0.61,0.12,0.91,0.17
		c0.34,0.06,0.67,0.1,1.01,0.14c0.3,0.04,0.6,0.09,0.9,0.12c0.34,0.04,0.67,0.06,1.01,0.09c0.3,0.02,0.6,0.06,0.9,0.07
		c0.34,0.02,0.67,0.02,1.01,0.03c0.3,0.01,0.6,0.02,0.9,0.02c0.34,0,0.68-0.01,1.02-0.02c0.3-0.01,0.59-0.01,0.89-0.02
		c0.34-0.02,0.69-0.05,1.03-0.08c0.29-0.02,0.58-0.04,0.88-0.07c0.35-0.04,0.69-0.09,1.04-0.14c0.29-0.04,0.58-0.07,0.87-0.12
		c0.35-0.06,0.71-0.13,1.06-0.2c0.28-0.05,0.56-0.1,0.84-0.16c0.37-0.08,0.74-0.18,1.11-0.27c0.27-0.07,0.53-0.12,0.8-0.19
		c0.39-0.1,0.77-0.23,1.16-0.34c0.25-0.08,0.5-0.14,0.75-0.22c0.45-0.14,0.89-0.31,1.34-0.47c0.19-0.07,0.38-0.13,0.56-0.2
		c0.64-0.24,1.27-0.5,1.91-0.77c0.25-0.11,0.41-0.36,0.41-0.63V14.18C47.57,13.84,47.32,13.55,46.99,13.5z"/><path fill="#f6e781" d="M36.66,9.64h-9.32c-0.55,0-1-0.45-1-1s0.45-1,1-1h9.32c0.55,0,1,0.45,1,1S37.21,9.64,36.66,9.64z"/><circle cx="20.18" cy="44.99" r="3.19" fill="#f6e781"/><circle cx="43.82" cy="44.99" r="3.19" fill="#f6e781"/><path fill="#595959" d="M21.87 59.73L21.87 59.73c-1.59 0-2.88-1.29-2.88-2.88v-2.88h5.77v2.88C24.75 58.44 23.46 59.73 21.87 59.73zM42.13 59.73L42.13 59.73c-1.59 0-2.88-1.29-2.88-2.88v-2.88h5.77v2.88C45.02 58.44 43.72 59.73 42.13 59.73zM6.3 32.48H2.92C2.41 32.48 2 32.07 2 31.56V22.8c0-.51.41-.92.92-.92H6.3c.51 0 .92.41.92.92v8.76C7.22 32.07 6.81 32.48 6.3 32.48zM57.7 32.48h3.38c.51 0 .92-.41.92-.92V22.8c0-.51-.41-.92-.92-.92H57.7c-.51 0-.92.41-.92.92v8.76C56.78 32.07 57.19 32.48 57.7 32.48zM37.07 49.18H26.93c-.55 0-1-.45-1-1s.45-1 1-1h10.14c.55 0 1 .45 1 1S37.62 49.18 37.07 49.18zM35.07 44.51h-6.14c-.55 0-1-.45-1-1s.45-1 1-1h6.14c.55 0 1 .45 1 1S35.62 44.51 35.07 44.51z"/></g></svg>