<svg xmlns="http://www.w3.org/2000/svg" width="32" height="32" viewBox="0 0 32 32"><g transform="translate(551.002 -1517.362)"><path fill="none" stroke="#34485c" stroke-linecap="round" stroke-linejoin="round" d="M-525.08627 1532.3999l1.48845-1.4885M-544.00869 1532.3999l-1.48845-1.4885"/><path style="isolation:auto;mix-blend-mode:normal" fill="#34485c" d="m -541.00901,1539.3622 0.009,2.0043 c 0.002,0.5516 -0.46587,0.9957 -1.01747,0.9957 l -1.99127,0 c -0.5516,0 -0.99688,-0.4441 -0.99567,-0.9957 l 0.004,-2.0043" color="#000" overflow="visible"/><path style="isolation:auto;mix-blend-mode:normal" fill="#f8b84e" d="m -537,1524.3622 5,0 0,2.4936 -5,0 z" color="#000" overflow="visible"/><path style="isolation:auto;mix-blend-mode:normal" fill="#34485c" d="m -541.008,1526.3622 13.02271,0 c 0.98529,0 1.31732,1 1.31507,0.9916 l 1.67022,5.0084 -19.00869,0 1.66669,-4.998 c 5.3e-4,0 0.342,-1.002 1.334,-1.002 z" color="#000" overflow="visible"/><path style="isolation:auto;mix-blend-mode:normal" fill="#f8b84e" d="m -543.96094,512 -1.04101,1.05273 c -0.99772,0.9977 -0.99805,0.9481 -0.99805,1.9375 l 0,3.01758 c 0,0 0,0.99219 1,0.99219 l 6,0 5,0 10,0 c 1,0 1,-0.99219 1,-0.99219 l 0,-3.01758 c 0,-0.9894 -3.3e-4,-0.9398 -0.99805,-1.9375 L -525.03906,512 -534,512 l -5,0 -4.96094,0 z" color="#000" overflow="visible" transform="translate(0 1020.362)"/><path style="isolation:auto;mix-blend-mode:normal" fill="#fcd062" d="m -539,1538.8254 c 0,-0.8105 0.669,-1.4632 1.5,-1.4632 l 6,0 c 0.831,0 1.5,0.6527 1.5,1.4632 l 0,0.5368 -4.5,0 -4.5,0 z" color="#000" overflow="visible"/><path fill="none" stroke="#fcd062" d="M-544.50652 1537.8622l2.98696 0M-527.58043 1537.8622l2.98695 0"/><rect style="isolation:auto;mix-blend-mode:normal" width="7.965" height=".996" x="-538.533" y="1535.373" fill="#fcd062" color="#000" overflow="visible" rx=".498" ry=".498"/><rect style="isolation:auto;mix-blend-mode:normal" width="2.987" height=".996" x="-544.507" y="1535.373" fill="#f05542" color="#000" overflow="visible" rx=".498" ry=".498"/><rect width="2.987" height=".996" x="-527.581" y="1535.373" fill="#f05542" color="#000" overflow="visible" rx=".498" ry=".498" style="isolation:auto;mix-blend-mode:normal"/><path style="isolation:auto;mix-blend-mode:normal" fill="#34485c" d="m -524.00459,1539.3622 0.009,2.0043 c 0.002,0.5516 -0.46587,0.9957 -1.01747,0.9957 l -1.99127,0 c -0.5516,0 -0.99688,-0.4441 -0.99567,-0.9957 l 0.004,-2.0043" color="#000" overflow="visible"/><path style="isolation:auto;mix-blend-mode:normal" fill="#e9eded" d="m -541,1527.3622 13,0 1.49565,4 -16,0 z" color="#000" overflow="visible"/></g></svg>